<?xml version="1.0" encoding="UTF-8"?>
<svg version="1.1" xmlns="http://www.w3.org/2000/svg" width="144" height="140">
<path d="M0 0 C1.82263302 -0.00202483 3.64526524 -0.00493966 5.46789551 -0.00869751 C9.27376069 -0.01310162 13.07941355 -0.0067518 16.88525391 0.00732422 C21.74033768 0.02441493 26.59492376 0.01456344 31.44998932 -0.00339317 C35.20944911 -0.01428293 38.96879275 -0.01076096 42.72825623 -0.0030098 C44.51745158 -0.00102211 46.30665781 -0.00341618 48.09584045 -0.01044846 C61.14145852 -0.05048277 72.92115794 0.32159249 83.21875 9.3984375 C89.65380198 16.96341296 91.52051547 24.41666451 91.50927734 34.11254883 C91.51599457 34.9558223 91.52271179 35.79909576 91.52963257 36.66792297 C91.54853544 39.43883252 91.55253287 42.20949885 91.5546875 44.98046875 C91.56112084 46.91949053 91.5678496 48.85851135 91.57485962 50.79753113 C91.58681316 54.85666147 91.59054243 58.91570683 91.58935547 62.97485352 C91.58915241 68.15628982 91.61645021 73.33717688 91.65089989 78.51848316 C91.67322245 82.52241989 91.67719137 86.52622556 91.67613602 90.53021812 C91.67848407 92.43944885 91.6872624 94.34868362 91.70280075 96.25785255 C91.79768067 109.11960816 91.55888713 119.74597477 82.28515625 129.640625 C66.90478452 142.72411702 40.88285645 138.55878801 22.25756836 138.52880859 C19.59408263 138.52521084 16.93079771 138.52427421 14.26733398 138.52880859 C10.36700456 138.53501665 6.46673843 138.53423211 2.56640625 138.53125 C1.38909439 138.53327423 0.21178253 138.53529846 -1.00120544 138.53738403 C-15.07259937 138.49786208 -26.38590569 138.23023521 -37.0625 128.16796875 C-46.9481163 117.99027742 -46.23591122 103.85153367 -46.1796875 90.5859375 C-46.18171415 88.88305538 -46.18463048 87.18017411 -46.18838501 85.47729492 C-46.19278058 81.92716114 -46.18646738 78.37725547 -46.17236328 74.82714844 C-46.15527303 70.30860731 -46.16512919 65.79060104 -46.18308067 61.27207947 C-46.19399388 57.76131259 -46.19043789 54.25066958 -46.1826973 50.73989868 C-46.18071604 49.07516413 -46.18308035 47.4104178 -46.19013596 45.74569702 C-46.23364666 32.59907715 -45.89072138 19.80926194 -36.78125 9.3984375 C-26.44443961 -0.7383056 -13.51298631 -0.05311202 0 0 Z " fill="#181E29" transform="translate(52.78125,0.6015625)"/>
<path d="M0 0 C3.61138377 1.03599292 5.02603137 3.4910267 6.93359375 6.5546875 C6.9903125 7.35519531 7.04703125 8.15570313 7.10546875 8.98046875 C8.39623114 12.99279145 11.71820809 14.1867892 15.24609375 16.0546875 C22.2080174 19.80392517 26.10817456 23.49177466 29.74609375 30.6796875 C30.18566406 31.52789062 30.62523438 32.37609375 31.078125 33.25 C31.93359375 35.5546875 31.93359375 35.5546875 30.93359375 38.5546875 C29.61359375 38.5546875 28.29359375 38.5546875 26.93359375 38.5546875 C26.60230469 37.72066406 26.27101563 36.88664062 25.9296875 36.02734375 C22.5727226 28.68240551 19.27830355 24.32171586 12.24609375 20.1796875 C11.5924585 19.79304932 10.93882324 19.40641113 10.26538086 19.00805664 C6.44268744 16.92361884 5.30805552 16.46107206 0.93359375 17.5546875 C0.60359375 21.5146875 0.27359375 25.4746875 -0.06640625 29.5546875 C0.96484375 29.6371875 1.99609375 29.7196875 3.05859375 29.8046875 C7.51434379 30.66709073 9.54353254 31.5331112 12.93359375 34.5546875 C13.79452633 36.26025741 14.60373907 37.99251884 15.37109375 39.7421875 C16.47997154 42.37969915 16.47997154 42.37969915 17.93359375 44.5546875 C21.59402067 45.85611666 21.59402067 45.85611666 24.93359375 45.5546875 C24.93359375 47.2046875 24.93359375 48.8546875 24.93359375 50.5546875 C22.29359375 50.5546875 19.65359375 50.5546875 16.93359375 50.5546875 C16.89234375 51.5653125 16.85109375 52.5759375 16.80859375 53.6171875 C16.1443314 58.35366689 13.43860497 61.44368222 9.93359375 64.5546875 C6.23098098 66.98873915 4.90775632 66.5546875 -0.06640625 66.5546875 C-0.06640625 70.8446875 -0.06640625 75.1346875 -0.06640625 79.5546875 C5.72925079 79.5546875 8.2501921 78.83343487 12.87109375 75.8671875 C13.48355957 75.47797119 14.09602539 75.08875488 14.72705078 74.68774414 C21.12981885 70.27189519 24.01500847 64.65365244 26.93359375 57.5546875 C28.58359375 57.8846875 30.23359375 58.2146875 31.93359375 58.5546875 C30.48254928 65.38119216 27.70609719 72.75927548 21.95410156 77.02148438 C18.94293297 78.85849489 15.89962237 80.53035646 12.71289062 82.04345703 C10.59904736 83.0933699 8.74711898 84.04161112 6.93359375 85.5546875 C5.99155669 89.11381892 5.99155669 89.11381892 5.93359375 92.5546875 C2.64331913 95.68828238 0.8631503 96.53866066 -3.69140625 96.6171875 C-7.75483815 95.33795894 -9.0081145 94.25961265 -11.06640625 90.5546875 C-11.31640625 87.2421875 -11.31640625 87.2421875 -11.06640625 84.5546875 C-11.82953125 84.2865625 -12.59265625 84.0184375 -13.37890625 83.7421875 C-15.94021509 82.61044638 -17.26333563 81.64245349 -19.06640625 79.5546875 C-18.57140625 78.0696875 -18.57140625 78.0696875 -18.06640625 76.5546875 C-14.6917791 77.10192433 -12.98405625 77.6095875 -10.06640625 79.5546875 C-6.94118792 79.72167982 -6.94118792 79.72167982 -4.06640625 79.5546875 C-4.18023278 77.59567296 -4.3078175 75.6374537 -4.44140625 73.6796875 C-4.54582031 72.04386719 -4.54582031 72.04386719 -4.65234375 70.375 C-4.79894116 67.42422276 -4.79894116 67.42422276 -7.06640625 65.5546875 C-6.40640625 64.2346875 -5.74640625 62.9146875 -5.06640625 61.5546875 C-6.71640625 61.5546875 -8.36640625 61.5546875 -10.06640625 61.5546875 C-10.06640625 61.2246875 -10.06640625 60.8946875 -10.06640625 60.5546875 C-9.41414063 60.51730469 -8.761875 60.47992188 -8.08984375 60.44140625 C-2.79466352 60.04309623 1.3737204 59.51860518 5.93359375 56.5546875 C8.18025509 53.18469548 8.17933085 51.99363288 8.12109375 48.0546875 C8.11142578 46.61609375 8.11142578 46.61609375 8.1015625 45.1484375 C8.03652306 42.43970983 8.03652306 42.43970983 6.93359375 39.5546875 C3.09177332 37.48979681 -0.57159281 37.1907368 -4.87890625 36.9296875 C-6.04035156 36.85492188 -7.20179687 36.78015625 -8.3984375 36.703125 C-9.27886719 36.65414062 -10.15929687 36.60515625 -11.06640625 36.5546875 C-11.09544517 40.63800589 -11.11321814 44.7212977 -11.12890625 48.8046875 C-11.14147461 50.54298828 -11.14147461 50.54298828 -11.15429688 52.31640625 C-11.15751953 53.43144531 -11.16074219 54.54648438 -11.1640625 55.6953125 C-11.16929932 56.72172852 -11.17453613 57.74814453 -11.17993164 58.80566406 C-11.07877268 61.25523379 -10.90521639 63.25565284 -10.06640625 65.5546875 C-9.07640625 66.0496875 -9.07640625 66.0496875 -8.06640625 66.5546875 C-11.36640625 66.5546875 -14.66640625 66.5546875 -18.06640625 66.5546875 C-18.07414062 64.40259766 -18.07414062 64.40259766 -18.08203125 62.20703125 C-18.00559866 52.58767366 -18.00559866 52.58767366 -21.25830078 43.84082031 C-24.39854001 40.97907325 -27.9381019 39.36550979 -32.06640625 38.5546875 C-34.71995329 39.36174444 -34.71995329 39.36174444 -37.06640625 40.5546875 C-41.29964054 40.48042023 -43.32445519 40.22054101 -46.50390625 37.3671875 C-48.36856623 34.01079954 -48.69678235 32.3369441 -48.06640625 28.5546875 C-46.50390625 25.7421875 -46.50390625 25.7421875 -44.06640625 23.5546875 C-38.3425957 22.12373486 -38.3425957 22.12373486 -35.14111328 23.20483398 C-32.1589821 23.70770454 -30.89545011 22.62182049 -28.37109375 21.02734375 C-27.05044922 20.21040039 -27.05044922 20.21040039 -25.703125 19.37695312 C-24.79175781 18.79623047 -23.88039063 18.21550781 -22.94140625 17.6171875 C-21.12859417 16.47941274 -19.31359597 15.34511128 -17.49609375 14.21484375 C-16.69413574 13.70574463 -15.89217773 13.19664551 -15.06591797 12.67211914 C-13.06640625 11.5546875 -13.06640625 11.5546875 -11.06640625 11.5546875 C-11.22109375 10.224375 -11.22109375 10.224375 -11.37890625 8.8671875 C-11.06640625 5.5546875 -11.06640625 5.5546875 -9.06640625 2.6796875 C-5.74018184 0.32361188 -3.99306871 -0.25664336 0 0 Z " fill="#AEC7F2" transform="translate(78.06640625,21.4453125)"/>
<path d="M0 0 C13.52506793 -0.40985054 13.52506793 -0.40985054 18 3 C20.98564531 7.47846796 20.58471094 11.7529887 20 17 C18.625 20 18.625 20 16 22 C13.39591029 22.86526987 10.82903095 23.5589905 8.14453125 24.12890625 C5.82904114 24.78724877 5.82904114 24.78724877 5.07421875 26.96484375 C5.03748047 27.97224609 5.03748047 27.97224609 5 29 C5.66 29.66 6.32 30.32 7 31 C7.1953125 33.8203125 7.1953125 33.8203125 7.125 37.125 C7.10695312 38.22070312 7.08890625 39.31640625 7.0703125 40.4453125 C7.04710937 41.28835937 7.02390625 42.13140625 7 43 C2.78892722 44.26332183 0.4543291 44.00441956 -3.375 42.0625 C-4.59188424 41.39025121 -5.8033603 40.70765749 -7 40 C-7.33 41.32 -7.66 42.64 -8 44 C-9.79398267 43.04600922 -11.58511655 42.08665974 -13.375 41.125 C-14.37273438 40.59132812 -15.37046875 40.05765625 -16.3984375 39.5078125 C-19 38 -19 38 -21 36 C-23.28359234 36.13249706 -23.28359234 36.13249706 -25.8125 36.625 C-29.41941228 37.04719638 -30.69089043 37.14509225 -34.0625 35.5625 C-36.64542173 32.14637771 -37.55946256 29.28073629 -37 25 C-35 22 -35 22 -32 20 C-28.17735999 19.60455448 -25.63782632 19.78739123 -22 21 C-19.07507062 19.52383733 -19.07507062 19.52383733 -16 17.5 C-12.8125 15.46875 -12.8125 15.46875 -10 14 C-9.01 14.33 -8.02 14.66 -7 15 C-7 19.95 -7 24.9 -7 30 C-3.04 29.505 -3.04 29.505 1 29 C0.2236068 25.9254644 0.2236068 25.9254644 -2 24 C-1.34 24 -0.68 24 0 24 C0 16.08 0 8.16 0 0 Z " fill="#A3BEEC" transform="translate(67,58)"/>
<path d="M0 0 C4.39097119 1.75638848 5.58785788 3.96885553 7.375 8.125 C8.51141202 10.79241878 8.51141202 10.79241878 10 13 C13.66042692 14.30142916 13.66042692 14.30142916 17 14 C17 15.65 17 17.3 17 19 C14.36 19 11.72 19 9 19 C8.95875 20.010625 8.9175 21.02125 8.875 22.0625 C8.21073765 26.79897939 5.50501122 29.88899472 2 33 C-1.70261277 35.43405165 -3.02583743 35 -8 35 C-8 39.29 -8 43.58 -8 48 C-2.20434296 48 0.31659835 47.27874737 4.9375 44.3125 C5.54996582 43.92328369 6.16243164 43.53406738 6.79345703 43.13305664 C13.1962251 38.71720769 16.08141472 33.09896494 19 26 C20.65 26.33 22.3 26.66 24 27 C22.54895553 33.82650466 19.77250344 41.20458798 14.02050781 45.46679688 C11.00933922 47.30380739 7.96602862 48.97566896 4.77929688 50.48876953 C2.66545361 51.5386824 0.81352523 52.48692362 -1 54 C-1.94203706 57.55913142 -1.94203706 57.55913142 -2 61 C-5.29027462 64.13359488 -7.07044345 64.98397316 -11.625 65.0625 C-15.6884319 63.78327144 -16.94170825 62.70492515 -19 59 C-19.25 55.6875 -19.25 55.6875 -19 53 C-19.763125 52.731875 -20.52625 52.46375 -21.3125 52.1875 C-23.87380884 51.05575888 -25.19692938 50.08776599 -27 48 C-26.67 47.01 -26.34 46.02 -26 45 C-22.62537285 45.54723683 -20.91765 46.0549 -18 48 C-14.87478167 48.16699232 -14.87478167 48.16699232 -12 48 C-12.11382653 46.04098546 -12.24141125 44.0827662 -12.375 42.125 C-12.44460937 41.03445312 -12.51421875 39.94390625 -12.5859375 38.8203125 C-12.73253491 35.86953526 -12.73253491 35.86953526 -15 34 C-14.34 32.68 -13.68 31.36 -13 30 C-14.65 30 -16.3 30 -18 30 C-18 29.67 -18 29.34 -18 29 C-17.02160156 28.94392578 -17.02160156 28.94392578 -16.0234375 28.88671875 C-10.72825727 28.48840873 -6.55987335 27.96391768 -2 25 C0.24666134 21.63000798 0.2457371 20.43894538 0.1875 16.5 C0.18105469 15.5409375 0.17460938 14.581875 0.16796875 13.59375 C0.10292931 10.88502233 0.10292931 10.88502233 -1 8 C-2.65204456 7.29788106 -4.31923769 6.63028587 -6 6 C-6.33 5.34 -6.66 4.68 -7 4 C-4.35261084 2.5393715 -3.10551666 2 0 2 C0 1.34 0 0.68 0 0 Z " fill="#A8C1EE" transform="translate(86,53)"/>
<path d="M0 0 C0.33 0 0.66 0 1 0 C1.1546875 1.670625 1.1546875 1.670625 1.3125 3.375 C1.6528125 5.169375 1.6528125 5.169375 2 7 C2.99 7.66 3.98 8.32 5 9 C4.67 9.33 4.34 9.66 4 10 C4.99 10.66 5.98 11.32 7 12 C7.41820365 16.02590716 7.12945079 19.94387531 7 24 C2.38 24 -2.24 24 -7 24 C-7 27.63 -7 31.26 -7 35 C-8.32 34.67 -9.64 34.34 -11 34 C-11 34.66 -11 35.32 -11 36 C-12.485 36.495 -12.485 36.495 -14 37 C-15.74849109 35.93147767 -17.49677252 34.86260226 -19.2421875 33.7890625 C-21.09428936 32.7213232 -21.09428936 32.7213232 -23.5 33.8125 C-24.7375 34.4003125 -24.7375 34.4003125 -26 35 C-30.23323429 34.92573273 -32.25804894 34.66585351 -35.4375 31.8125 C-37.30215998 28.45611204 -37.6303761 26.7822566 -37 23 C-35.4375 20.1875 -35.4375 20.1875 -33 18 C-27.27618945 16.56904736 -27.27618945 16.56904736 -24.07470703 17.65014648 C-21.09257585 18.15301704 -19.82904386 17.06713299 -17.3046875 15.47265625 C-16.42425781 14.92802734 -15.54382813 14.38339844 -14.63671875 13.82226562 C-13.72535156 13.24154297 -12.81398438 12.66082031 -11.875 12.0625 C-10.06218792 10.92472524 -8.24718972 9.79042378 -6.4296875 8.66015625 C-5.62772949 8.15105713 -4.82577148 7.64195801 -3.99951172 7.11743164 C-2 6 -2 6 0 6 C0 4.02 0 2.04 0 0 Z " fill="#A7C1F0" transform="translate(67,27)"/>
<path d="M0 0 C7.29038314 2.14278153 15.95906914 6.56414678 20.125 13.0625 C21.79721095 16.25151197 23.04404995 19.523818 24 23 C24.84304687 22.75443359 24.84304687 22.75443359 25.703125 22.50390625 C28.13059056 21.97135003 30.26889681 21.90101319 32.75 21.9375 C33.54921875 21.94652344 34.3484375 21.95554687 35.171875 21.96484375 C35.77515625 21.97644531 36.3784375 21.98804687 37 22 C37 22.66 37 23.32 37 24 C37.66 24 38.32 24 39 24 C41.27180221 28.54360441 41.55394973 32.0144524 41 37 C38.32805171 40.23872519 36.62071155 40.88915865 32.5 41.625 C28.80160033 40.96457149 28.32601303 40.70595608 26.0625 38 C25.381875 37.01 24.70125 36.02 24 35 C23.67 35.33 23.34 35.66 23 36 C21.48530552 36.23192865 19.96245438 36.41215238 18.4375 36.5625 C17.61121094 36.64628906 16.78492187 36.73007813 15.93359375 36.81640625 C15.29550781 36.87699219 14.65742187 36.93757813 14 37 C14 36.34 14 35.68 14 35 C16.64 35 19.28 35 22 35 C22 33.35 22 31.7 22 30 C19.69 30 17.38 30 15 30 C14.64808594 29.25234375 14.29617187 28.5046875 13.93359375 27.734375 C10.75878746 21.40134105 8.66076479 17.66430592 2 15 C0.33858202 14.64142058 -1.32756004 14.3030404 -3 14 C-3.08082094 12.04233719 -3.13910778 10.08373272 -3.1875 8.125 C-3.22230469 7.03445312 -3.25710937 5.94390625 -3.29296875 4.8203125 C-3.19628906 3.88960937 -3.09960938 2.95890625 -3 2 C-2.01 1.34 -1.02 0.68 0 0 Z " fill="#151D2C" transform="translate(81,37)"/>
<path d="M0 0 C3.65390338 0.9642245 5.05460717 3.44530185 6.96875 6.51953125 C7.02546875 7.32003906 7.0821875 8.12054688 7.140625 8.9453125 C8.43138739 12.9576352 11.75336434 14.15163295 15.28125 16.01953125 C22.24317365 19.76876892 26.14333081 23.45661841 29.78125 30.64453125 C30.22082031 31.49273437 30.66039062 32.3409375 31.11328125 33.21484375 C31.96875 35.51953125 31.96875 35.51953125 30.96875 38.51953125 C29.64875 38.51953125 28.32875 38.51953125 26.96875 38.51953125 C26.63746094 37.68550781 26.30617187 36.85148437 25.96484375 35.9921875 C22.6233263 28.68104781 19.33107515 24.28808883 12.34375 20.14453125 C11.69849365 19.75789307 11.0532373 19.37125488 10.38842773 18.97290039 C7.49029801 17.38447008 5.45144424 16.48973531 2.12109375 16.6953125 C-0.23361241 17.59702393 -1.43582227 18.588224 -3.03125 20.51953125 C-3.03125 19.52953125 -3.03125 18.53953125 -3.03125 17.51953125 C-3.815 17.25140625 -4.59875 16.98328125 -5.40625 16.70703125 C-8.03125 15.51953125 -8.03125 15.51953125 -10.03125 12.51953125 C-10.68878425 5.61542166 -10.68878425 5.61542166 -8.53125 2.01953125 C-5.67048271 0.30307088 -3.34104619 -0.16829897 0 0 Z " fill="#A7C2F4" transform="translate(78.03125,21.48046875)"/>
<path d="M0 0 C12.46024735 -0.41077739 12.46024735 -0.41077739 17 3 C19.96828383 7.45242574 19.63369224 11.77776513 19 17 C16.90219061 20.61691275 15.95125774 21.68291409 12 23 C7.99616868 23.13399703 4.0072645 23.04308887 0 23 C0 15.41 0 7.82 0 0 Z " fill="#131B2A" transform="translate(68,58)"/>
<path d="M0 0 C2.25 0.75 2.25 0.75 3.25 1.75 C3.39355117 5.75220653 3.29216403 9.74441683 3.25 13.75 C-1.37 13.75 -5.99 13.75 -10.75 13.75 C-10.75 17.38 -10.75 21.01 -10.75 24.75 C-13.98401498 23.45639401 -16.9828399 22.19092886 -20.0625 20.625 C-21.10857422 20.09519531 -21.10857422 20.09519531 -22.17578125 19.5546875 C-22.69527344 19.28914063 -23.21476562 19.02359375 -23.75 18.75 C-24.23046875 16.07421875 -24.23046875 16.07421875 -23.75 12.75 C-21.4815895 10.53777305 -18.8173125 9.09934492 -16.0625 7.5625 C-15.34126953 7.13775391 -14.62003906 6.71300781 -13.87695312 6.27539062 C-12.47509316 5.45219797 -11.06685885 4.6397447 -9.65185547 3.83935547 C-8.04137257 2.91689402 -6.46708489 1.93167966 -4.90234375 0.93359375 C-2.75 -0.25 -2.75 -0.25 0 0 Z " fill="#1C2A40" transform="translate(70.75,37.25)"/>
<path d="M0 0 C0 3.63 0 7.26 0 11 C4.95 11 9.9 11 15 11 C15 14.96 15 18.92 15 23 C11.84757498 24.16059429 9.74711208 24.32574768 6.64599609 22.97363281 C3.93972117 21.43115373 1.31011885 19.80573208 -1.3125 18.125 C-2.23095703 17.55652344 -3.14941406 16.98804687 -4.09570312 16.40234375 C-10.72024829 12.27975171 -10.72024829 12.27975171 -12 11 C-12.04080783 9.00041636 -12.04254356 6.99954746 -12 5 C-10.56705502 4.15885829 -9.12845595 3.32734313 -7.6875 2.5 C-6.88699219 2.0359375 -6.08648437 1.571875 -5.26171875 1.09375 C-3 0 -3 0 0 0 Z " fill="#101928" transform="translate(59,78)"/>
<path d="M0 0 C2.4375 1.5625 2.4375 1.5625 4 4 C4.61113838 6.80777729 4.65466318 9.19758219 4 12 C1.28707652 15.2883921 -0.34816929 15.90851499 -4.5625 16.5 C-8 16 -8 16 -10.4375 14.5625 C-12.75364638 10.76401993 -12.90388217 7.32911985 -12 3 C-8.42324245 -1.55223688 -5.38017918 -1.56514303 0 0 Z " fill="#4576E5" transform="translate(118,62)"/>
<path d="M0 0 C0.33 0 0.66 0 1 0 C1.01417969 0.7321875 1.02835938 1.464375 1.04296875 2.21875 C2.46502399 6.35141666 5.64362981 7.55745507 9.3125 9.5 C16.27442365 13.24923767 20.17458081 16.93708716 23.8125 24.125 C24.25207031 24.97320312 24.69164063 25.82140625 25.14453125 26.6953125 C26 29 26 29 25 32 C23.68 32 22.36 32 21 32 C20.66871094 31.16597656 20.33742188 30.33195312 19.99609375 29.47265625 C16.6545763 22.16151656 13.36232515 17.76855758 6.375 13.625 C5.72974365 13.23836182 5.0844873 12.85172363 4.41967773 12.45336914 C1.42939125 10.81442881 -0.52819839 9.95642993 -3.9609375 10.2734375 C-4.63382812 10.51320313 -5.30671875 10.75296875 -6 11 C-6 10.01 -6 9.02 -6 8 C-4.68 7.67 -3.36 7.34 -2 7 C-1.34 4.69 -0.68 2.38 0 0 Z " fill="#A5BCE4" transform="translate(84,28)"/>
<path d="M0 0 C0.33 1.65 0.66 3.3 1 5 C4.3 4.34 7.6 3.68 11 3 C7.88168864 6.54842328 4.4732233 9.21634751 0.5625 11.875 C-0.34371094 12.49117187 -1.24992187 13.10734375 -2.18359375 13.7421875 C-5 15 -5 15 -11 14 C-11 9.71 -11 5.42 -11 1 C-3.375 -1.125 -3.375 -1.125 0 0 Z " fill="#192333" transform="translate(89,87)"/>
<path d="M0 0 C0.99 0.99 1.98 1.98 3 3 C4.32 2.01 5.64 1.02 7 0 C7.33 1.32 7.66 2.64 8 4 C8.84304687 3.75443359 8.84304687 3.75443359 9.703125 3.50390625 C12.13059056 2.97135003 14.26889681 2.90101319 16.75 2.9375 C17.54921875 2.94652344 18.3484375 2.95554688 19.171875 2.96484375 C19.77515625 2.97644531 20.3784375 2.98804688 21 3 C21 3.66 21 4.32 21 5 C21.66 5 22.32 5 23 5 C23 5.66 23 6.32 23 7 C22.39671875 6.89300781 21.7934375 6.78601562 21.171875 6.67578125 C16.25024399 5.88753616 16.25024399 5.88753616 11.5 7 C9.36003986 9.85328018 9.26391716 12.50309766 9 16 C5.7 16.66 2.4 17.32 -1 18 C-1.33 17.34 -1.66 16.68 -2 16 C0.64 16 3.28 16 6 16 C6 14.35 6 12.7 6 11 C3.69 11 1.38 11 -1 11 C-2.32 8.03 -3.64 5.06 -5 2 C-3.68 2 -2.36 2 -1 2 C-0.67 1.34 -0.34 0.68 0 0 Z " fill="#17212F" transform="translate(97,56)"/>
<path d="M0 0 C1.35439668 2.70879335 1.06501451 5.00933268 1 8 C1.66 7.34 2.32 6.68 3 6 C2.34 5.67 1.68 5.34 1 5 C1.66 3.35 2.32 1.7 3 0 C3.99 0 4.98 0 6 0 C6.02505615 0.58491211 6.0501123 1.16982422 6.07592773 1.77246094 C6.19222962 4.43184471 6.31480067 7.09090403 6.4375 9.75 C6.47681641 10.67039062 6.51613281 11.59078125 6.55664062 12.5390625 C6.61948242 13.87324219 6.61948242 13.87324219 6.68359375 15.234375 C6.72025146 16.05131836 6.75690918 16.86826172 6.79467773 17.70996094 C6.99393497 19.93235441 7.27580155 21.88846051 8 24 C8.66 24.33 9.32 24.66 10 25 C6.7 25 3.4 25 0 25 C-0.10957031 23.51886719 -0.21914063 22.03773437 -0.33203125 20.51171875 C-0.49147523 18.57025387 -0.65167056 16.6288506 -0.8125 14.6875 C-0.88275391 13.71103516 -0.95300781 12.73457031 -1.02539062 11.72851562 C-1.10595703 10.79072266 -1.18652344 9.85292969 -1.26953125 8.88671875 C-1.33760986 8.02264404 -1.40568848 7.15856934 -1.47583008 6.26831055 C-2.08124342 3.6484245 -2.95044233 2.68347922 -5 1 C-3.35 0.67 -1.7 0.34 0 0 Z " fill="#A5C1F0" transform="translate(60,63)"/>
<path d="M0 0 C-0.33 3.63 -0.66 7.26 -1 11 C-16 11 -16 11 -18 10 C-17.859375 8.23828125 -17.859375 8.23828125 -17 6 C-14.453125 4.04296875 -14.453125 4.04296875 -11.25 2.1875 C-9.67992187 1.24970703 -9.67992187 1.24970703 -8.078125 0.29296875 C-5 -1 -5 -1 0 0 Z " fill="#161E2D" transform="translate(73,38)"/>
<path d="M0 0 C2.4375 1.5625 2.4375 1.5625 4 4 C4.61113838 6.80777729 4.65466318 9.19758219 4 12 C1.28707652 15.2883921 -0.34816929 15.90851499 -4.5625 16.5 C-8 16 -8 16 -10.4375 14.5625 C-12.75364638 10.76401993 -12.90388217 7.32911985 -12 3 C-8.42324245 -1.55223688 -5.38017918 -1.56514303 0 0 Z M-9 2 C-9.05422947 3.4370809 -9.09289723 4.87475462 -9.125 6.3125 C-9.14820312 7.11300781 -9.17140625 7.91351563 -9.1953125 8.73828125 C-9.15817322 11.28388576 -9.15817322 11.28388576 -7 14 C-5.700625 13.855625 -4.40125 13.71125 -3.0625 13.5625 C-2.33160156 13.48128906 -1.60070312 13.40007812 -0.84765625 13.31640625 C1.01140229 13.18113386 1.01140229 13.18113386 2 12 C2.23790731 9.93335994 2.23790731 9.93335994 2.25 7.5625 C2.27578125 6.75941406 2.3015625 5.95632812 2.328125 5.12890625 C2.21984375 4.42636719 2.1115625 3.72382812 2 3 C-1.66684375 0.5554375 -4.93768811 -0.03115595 -9 2 Z " fill="#4F6DBC" transform="translate(118,62)"/>
<path d="M0 0 C5.44915409 1.10830253 8.84015388 2.10014426 13 6 C12.01 6.99 11.02 7.98 10 9 C9.48050781 8.68804687 8.96101563 8.37609375 8.42578125 8.0546875 C6.30727745 6.87208464 4.28315141 5.82518394 2 5 C-0.59047977 5.75285597 -0.59047977 5.75285597 -3 7 C-6.6875 6.8125 -6.6875 6.8125 -10 6 C-10.66 5.01 -11.32 4.02 -12 3 C-10.68 2.67 -9.36 2.34 -8 2 C-8 2.99 -8 3.98 -8 5 C-6.35 5 -4.7 5 -3 5 C-2.67 4.01 -2.34 3.02 -2 2 C-1.34 2 -0.68 2 0 2 C0 1.34 0 0.68 0 0 Z " fill="#9EB6DE" transform="translate(44,55)"/>
<path d="M0 0 C0.33 0 0.66 0 1 0 C1 7.59 1 15.18 1 23 C4.3 23 7.6 23 11 23 C11 23.33 11 23.66 11 24 C9.35 24.33 7.7 24.66 6 25 C4.98888907 28.04913228 4.98888907 28.04913228 6 31 C1.38 31 -3.24 31 -8 31 C-8.33 27.04 -8.66 23.08 -9 19 C-8.34 19 -7.68 19 -7 19 C-7 22.63 -7 26.26 -7 30 C-3.04 29.505 -3.04 29.505 1 29 C0.2236068 25.9254644 0.2236068 25.9254644 -2 24 C-1.34 24 -0.68 24 0 24 C0 16.08 0 8.16 0 0 Z " fill="#7990B4" transform="translate(67,58)"/>
<path d="M0 0 C0 1.32 0 2.64 0 4 C-3.96 5.98 -7.92 7.96 -12 10 C-12.99 9.34 -13.98 8.68 -15 8 C-15 7.34 -15 6.68 -15 6 C-12.48046875 4.23828125 -12.48046875 4.23828125 -9.1875 2.3125 C-8.10855469 1.66925781 -7.02960937 1.02601562 -5.91796875 0.36328125 C-3 -1 -3 -1 0 0 Z " fill="#9EB9DF" transform="translate(60,73)"/>
<path d="M0 0 C1.21236328 0.02707031 1.21236328 0.02707031 2.44921875 0.0546875 C3.37154297 0.08949219 3.37154297 0.08949219 4.3125 0.125 C4.3125 0.785 4.3125 1.445 4.3125 2.125 C4.9725 2.125 5.6325 2.125 6.3125 2.125 C6.3125 2.785 6.3125 3.445 6.3125 4.125 C5.70921875 4.01800781 5.1059375 3.91101562 4.484375 3.80078125 C-0.43725601 3.01253616 -0.43725601 3.01253616 -5.1875 4.125 C-7.32746014 6.97828018 -7.42358284 9.62809766 -7.6875 13.125 C-10.9875 13.785 -14.2875 14.445 -17.6875 15.125 C-18.0175 14.465 -18.3475 13.805 -18.6875 13.125 C-16.0475 13.125 -13.4075 13.125 -10.6875 13.125 C-11.0175 11.145 -11.3475 9.165 -11.6875 7.125 C-10.6975 6.465 -9.7075 5.805 -8.6875 5.125 C-8.3575 4.135 -8.0275 3.145 -7.6875 2.125 C-4.48369983 -0.01086678 -3.66810033 -0.10632175 0 0 Z " fill="#0E2045" transform="translate(113.6875,58.875)"/>
<path d="M0 0 C0 5.28 0 10.56 0 16 C-1.65 16.33 -3.3 16.66 -5 17 C-4.67 16.34 -4.34 15.68 -4 15 C-3.92883618 12.62597499 -3.91590915 10.24999323 -3.9375 7.875 C-3.94652344 6.59367187 -3.95554688 5.31234375 -3.96484375 3.9921875 C-3.97644531 3.00476563 -3.98804688 2.01734375 -4 1 C-1 0 -1 0 0 0 Z " fill="#253352" transform="translate(42,61)"/>
<path d="M0 0 C0.9590625 0.2784375 0.9590625 0.2784375 1.9375 0.5625 C2.9584375 0.7790625 2.9584375 0.7790625 4 1 C4.33 0.67 4.66 0.34 5 0 C8.49171665 0.49881666 11.06073923 2.12213895 14 4 C13.34 5.65 12.68 7.3 12 9 C10.18146744 8.07425608 8.37031117 7.13401005 6.5625 6.1875 C5.55316406 5.66542969 4.54382812 5.14335938 3.50390625 4.60546875 C1 3 1 3 0 0 Z " fill="#A1B7DE" transform="translate(47,93)"/>
<path d="M0 0 C3.17119503 1.09351553 4.00783543 2.0126988 5.8125 4.9375 C7 8 7 8 6 11 C4.68 11 3.36 11 2 11 C-1.07692308 5.70769231 -1.07692308 5.70769231 -0.6875 2.125 C-0.460625 1.42375 -0.23375 0.7225 0 0 Z " fill="#A9BFE3" transform="translate(103,49)"/>
<path d="M0 0 C1.1446875 0.2784375 1.1446875 0.2784375 2.3125 0.5625 C5.08967375 1.22819173 5.08967375 1.22819173 8 0 C9.35085807 0.63040043 10.68252676 1.30251417 12 2 C13.65740715 2.37668344 15.32345271 2.72057545 17 3 C16.67 3.99 16.34 4.98 16 6 C16.66 6.33 17.32 6.66 18 7 C17.01 7 16.02 7 15 7 C15 6.34 15 5.68 15 5 C14.09507813 5.01740234 14.09507813 5.01740234 13.171875 5.03515625 C11.97304688 5.04869141 11.97304688 5.04869141 10.75 5.0625 C9.56664062 5.07990234 9.56664062 5.07990234 8.359375 5.09765625 C4.98780173 4.95810438 2.19244855 4.06414952 -1 3 C-0.67 2.01 -0.34 1.02 0 0 Z " fill="#AEC6F1" transform="translate(36,89)"/>
<path d="M0 0 C1.32 0.66 2.64 1.32 4 2 C3.9375 4.25 3.9375 4.25 3 7 C0.7691525 8.67849824 -1.47405906 9.75999263 -4 11 C-4 9.68 -4 8.36 -4 7 C-4.66 6.67 -5.32 6.34 -6 6 C-5.195625 5.38125 -4.39125 4.7625 -3.5625 4.125 C-0.96125481 2.25835959 -0.96125481 2.25835959 0 0 Z " fill="#A6BAE1" transform="translate(100,89)"/>
<path d="M0 0 C0.33 0 0.66 0 1 0 C1.103125 1.11375 1.20625 2.2275 1.3125 3.375 C1.6528125 5.169375 1.6528125 5.169375 2 7 C2.99 7.66 3.98 8.32 5 9 C2.875 10.625 2.875 10.625 0 12 C-3.3125 11.1875 -3.3125 11.1875 -6 10 C-6.33 10.66 -6.66 11.32 -7 12 C-7.66 11.34 -8.32 10.68 -9 10 C-2.25 6 -2.25 6 0 6 C0 4.02 0 2.04 0 0 Z " fill="#A4B9DE" transform="translate(67,27)"/>
<path d="M0 0 C0.103125 0.639375 0.20625 1.27875 0.3125 1.9375 C0.539375 2.618125 0.76625 3.29875 1 4 C1.99 4.33 2.98 4.66 4 5 C4 5.66 4 6.32 4 7 C6.97 7.33 9.94 7.66 13 8 C13 8.66 13 9.32 13 10 C8.99663607 10.94196798 6.83846941 11.4374623 3.125 9.5 C0.45312161 6.35661366 0.23416555 4.05886955 0 0 Z " fill="#9EB6DC" transform="translate(67,107)"/>
<path d="M0 0 C2 0 2 0 3.5625 1.3125 C5 3 5 3 6 6 C5.30769231 12.69230769 5.30769231 12.69230769 4 14 C2.33382885 14.04063832 0.66611905 14.042721 -1 14 C-0.34 13.01 0.32 12.02 1 11 C1.27785432 9.04620501 1.27785432 9.04620501 1.1875 7 C1.18105469 6.319375 1.17460938 5.63875 1.16796875 4.9375 C1.05697746 2.78241791 1.05697746 2.78241791 0 0 Z " fill="#112244" transform="translate(120,63)"/>
<path d="M0 0 C0.66 0 1.32 0 2 0 C3.85776765 3.13498292 4.20140476 5.37471432 4 9 C6.31 9 8.62 9 11 9 C10.67 9.99 10.34 10.98 10 12 C7.69 11.67 5.38 11.34 3 11 C2.67 9.35 2.34 7.7 2 6 C1.01 5.67 0.02 5.34 -1 5 C-0.67 3.35 -0.34 1.7 0 0 Z " fill="#ADC4EC" transform="translate(91,59)"/>
<path d="M0 0 C1.65 0.99 3.3 1.98 5 3 C4.34 3.66 3.68 4.32 3 5 C2.01 4.67 1.02 4.34 0 4 C0 5.98 0 7.96 0 10 C-0.33 9.34 -0.66 8.68 -1 8 C-2.2375 7.505 -2.2375 7.505 -3.5 7 C-6 6 -6 6 -7 4 C-4.35261084 2.5393715 -3.10551666 2 0 2 C0 1.34 0 0.68 0 0 Z " fill="#A0B8E0" transform="translate(86,53)"/>
<path d="M0 0 C0.886875 0.391875 1.77375 0.78375 2.6875 1.1875 C0.56080165 3.52686818 -1.37474856 4.99403848 -4.3125 6.1875 C-5.3025 6.1875 -6.2925 6.1875 -7.3125 6.1875 C-7.6425 4.8675 -7.9725 3.5475 -8.3125 2.1875 C-5.09279771 -0.27462528 -4.04623082 -0.99247171 0 0 Z " fill="#A2B9E2" transform="translate(53.3125,42.8125)"/>
<path d="M0 0 C0.33 0.99 0.66 1.98 1 3 C-0.65 4.65 -2.3 6.3 -4 8 C-4.99 7.67 -5.98 7.34 -7 7 C-6.67 5.35 -6.34 3.7 -6 2 C-4.02 1.34 -2.04 0.68 0 0 Z " fill="#B1C8EA" transform="translate(96,95)"/>
<path d="M0 0 C2.5 1.1875 2.5 1.1875 5 3 C5.3125 5.6875 5.3125 5.6875 5 8 C3.02 8.99 1.04 9.98 -1 11 C-1.66 10.34 -2.32 9.68 -3 9 C-1.7934375 8.319375 -1.7934375 8.319375 -0.5625 7.625 C2.08856572 6.25274335 2.08856572 6.25274335 3 4 C1.68 3.67 0.36 3.34 -1 3 C-0.67 2.01 -0.34 1.02 0 0 Z " fill="#14223A" transform="translate(54,64)"/>
<path d="M0 0 C0 0.99 0 1.98 0 3 C0.33 3.99 0.66 4.98 1 6 C-1.3125 7.125 -1.3125 7.125 -4 8 C-4.99 7.34 -5.98 6.68 -7 6 C-7 5.34 -7 4.68 -7 4 C-4.69 2.68 -2.38 1.36 0 0 Z " fill="#9DB5DA" transform="translate(52,75)"/>
<path d="M0 0 C0.33 0 0.66 0 1 0 C1.12375 0.78375 1.2475 1.5675 1.375 2.375 C1.79117993 5.14057822 1.79117993 5.14057822 4 7 C3.34 7 2.68 7 2 7 C2 7.66 2 8.32 2 9 C-0.64 9.66 -3.28 10.32 -6 11 C-6 10.01 -6 9.02 -6 8 C-4.68 7.67 -3.36 7.34 -2 7 C-1.34 4.69 -0.68 2.38 0 0 Z " fill="#95ABD7" transform="translate(84,28)"/>
<path d="M0 0 C0.33 0 0.66 0 1 0 C1 3.96 1 7.92 1 12 C-1.875 12.625 -1.875 12.625 -5 13 C-5.66 12.34 -6.32 11.68 -7 11 C-6.67 10.34 -6.34 9.68 -6 9 C-4.02 9.495 -4.02 9.495 -2 10 C-1.34 6.7 -0.68 3.4 0 0 Z " fill="#33455F" transform="translate(73,89)"/>
<path d="M0 0 C1.65 0.33 3.3 0.66 5 1 C4.67 2.32 4.34 3.64 4 5 C3.01 5 2.02 5 1 5 C0.67 5.66 0.34 6.32 0 7 C-0.66 6.67 -1.32 6.34 -2 6 C-1.34 4.02 -0.68 2.04 0 0 Z " fill="#ADBEDF" transform="translate(105,79)"/>
<path d="M0 0 C0.33 0 0.66 0 1 0 C1 4.62 1 9.24 1 14 C1.66 14.33 2.32 14.66 3 15 C0.36 15.99 -2.28 16.98 -5 18 C-4.34 16.68 -3.68 15.36 -3 14 C-2.34 14 -1.68 14 -1 14 C-0.67 9.38 -0.34 4.76 0 0 Z " fill="#182741" transform="translate(37,62)"/>
<path d="M0 0 C0.99 0 1.98 0 3 0 C3.22786458 2.01822917 3.45572917 4.03645833 3.68359375 6.0546875 C3.91292961 8.07404316 3.91292961 8.07404316 5 10 C3.35 9.67 1.7 9.34 0 9 C0 6.03 0 3.06 0 0 Z " fill="#4F70CA" transform="translate(106,65)"/>
<path d="M0 0 C0.33 0 0.66 0 1 0 C1.33 1.65 1.66 3.3 2 5 C4.31 5.66 6.62 6.32 9 7 C9.33 8.65 9.66 10.3 10 12 C6.48176333 10.22831653 3.11323005 8.42504235 0 6 C-0.625 2.625 -0.625 2.625 0 0 Z " fill="#1C2A43" transform="translate(47,83)"/>
<path d="M0 0 C0.66 0 1.32 0 2 0 C2 0.66 2 1.32 2 2 C2.66 2 3.32 2 4 2 C4.33 1.34 4.66 0.68 5 0 C5.33 1.65 5.66 3.3 6 5 C3 6 3 6 0 6 C-1 3 -1 3 0 0 Z " fill="#161A23" transform="translate(51,50)"/>
<path d="M0 0 C-3.63 1.98 -7.26 3.96 -11 6 C-11.66 5.34 -12.32 4.68 -13 4 C-9.10565016 0.10565016 -5.31276135 -1.32819034 0 0 Z " fill="#152437" transform="translate(60,37)"/>
<path d="M0 0 C1.485 0.99 1.485 0.99 3 2 C5.28648848 2.24107326 5.28648848 2.24107326 7.6875 2.125 C8.49574219 2.10695313 9.30398437 2.08890625 10.13671875 2.0703125 C10.75160156 2.04710938 11.36648437 2.02390625 12 2 C11.67 2.99 11.34 3.98 11 5 C7.7 5 4.4 5 1 5 C0.67 3.35 0.34 1.7 0 0 Z " fill="#0E1E46" transform="translate(107,75)"/>
<path d="M0 0 C4.95 0.99 4.95 0.99 10 2 C10.33 3.65 10.66 5.3 11 7 C7.37 5.02 3.74 3.04 0 1 C0 0.67 0 0.34 0 0 Z " fill="#172537" transform="translate(88,34)"/>
<path d="M0 0 C2 2 2 2 2 7 C-1.3 7.66 -4.6 8.32 -8 9 C-8.33 8.34 -8.66 7.68 -9 7 C-6.36 7 -3.72 7 -1 7 C-1.33 5.02 -1.66 3.04 -2 1 C-1.34 0.67 -0.68 0.34 0 0 Z " fill="#1E2E4E" transform="translate(104,65)"/>
<path d="M0 0 C0.99 0 1.98 0 3 0 C3 3.96 3 7.92 3 12 C2.34 12 1.68 12 1 12 C0.67 8.04 0.34 4.08 0 0 Z " fill="#152133" transform="translate(34,61)"/>
<path d="M0 0 C1.98 0.66 3.96 1.32 6 2 C5.67 2.99 5.34 3.98 5 5 C4.01 5.33 3.02 5.66 2 6 C1.01 5.34 0.02 4.68 -1 4 C-0.67 2.68 -0.34 1.36 0 0 Z " fill="#A7BBE1" transform="translate(51,58)"/>
<path d="M0 0 C0.99 0.33 1.98 0.66 3 1 C4.1875 3.5625 4.1875 3.5625 5 6 C4.01 6 3.02 6 2 6 C1.34 6.66 0.68 7.32 0 8 C-0.66 6.35 -1.32 4.7 -2 3 C-1.34 2.67 -0.68 2.34 0 2 C0 1.34 0 0.68 0 0 Z " fill="#9DB4DC" transform="translate(101,44)"/>
<path d="M0 0 C3.96 1.98 3.96 1.98 8 4 C7.01 4.99 6.02 5.98 5 7 C3.29115995 5.37660195 1.62553283 3.70680947 0 2 C0 1.34 0 0.68 0 0 Z " fill="#1B2840" transform="translate(59,102)"/>
<path d="M0 0 C1.0625 1.875 1.0625 1.875 2 4 C1.67 4.66 1.34 5.32 1 6 C-1.0625 6.625 -1.0625 6.625 -3 7 C-3.33 5.68 -3.66 4.36 -4 3 C-2.68 2.01 -1.36 1.02 0 0 Z " fill="#2F353B" transform="translate(19,8)"/>
<path d="M0 0 C0.33 0.66 0.66 1.32 1 2 C2.32 2 3.64 2 5 2 C5.33 3.65 5.66 5.3 6 7 C5.01 7 4.02 7 3 7 C0.8125 4 0.8125 4 -1 1 C-0.67 0.67 -0.34 0.34 0 0 Z " fill="#162137" transform="translate(81,21)"/>
<path d="M0 0 C0.103125 0.639375 0.20625 1.27875 0.3125 1.9375 C0.539375 2.618125 0.76625 3.29875 1 4 C1.99 4.33 2.98 4.66 4 5 C4 5.99 4 6.98 4 8 C4.99 8.33 5.98 8.66 7 9 C3 9 3 9 1.25 7.3125 C-0.18991433 4.64865849 -0.24862931 2.98355176 0 0 Z " fill="#97ABCE" transform="translate(67,107)"/>
<path d="M0 0 C0.99 0.66 1.98 1.32 3 2 C1.68 3.32 0.36 4.64 -1 6 C-2.32 5.34 -3.64 4.68 -5 4 C-3.35 2.68 -1.7 1.36 0 0 Z " fill="#172438" transform="translate(100,97)"/>
<path d="M0 0 C0.99 0.99 1.98 1.98 3 3 C2.67 3.99 2.34 4.98 2 6 C1.01 6 0.02 6 -1 6 C-1.33 4.35 -1.66 2.7 -2 1 C-1.34 0.67 -0.68 0.34 0 0 Z " fill="#B6CCE9" transform="translate(107,54)"/>
<path d="M0 0 C0.4125 0.45375 0.825 0.9075 1.25 1.375 C3.06408095 3.05950374 4.75285627 3.99265971 7 5 C6.01 5.495 6.01 5.495 5 6 C4.67 6.99 4.34 7.98 4 9 C0 2.25 0 2.25 0 0 Z " fill="#0C1829" transform="translate(103,43)"/>
<path d="M0 0 C1.32 0.33 2.64 0.66 4 1 C4.33 2.65 4.66 4.3 5 6 C3.68 5.67 2.36 5.34 1 5 C0.67 3.35 0.34 1.7 0 0 Z " fill="#AFC3ED" transform="translate(93,39)"/>
<path d="M0 0 C1.32 0.66 2.64 1.32 4 2 C0.25 5 0.25 5 -2 5 C-2.33 4.01 -2.66 3.02 -3 2 C-2.01 1.34 -1.02 0.68 0 0 Z " fill="#A1B9E4" transform="translate(72,22)"/>
<path d="M0 0 C-0.33 0.66 -0.66 1.32 -1 2 C-3.97 2 -6.94 2 -10 2 C-7.85732894 -2.28534211 -3.95706306 -0.79141261 0 0 Z " fill="#3E4248" transform="translate(33,4)"/>
<path d="M0 0 C-1.45255699 3.82946843 -3.42895561 5.12050295 -7 7 C-7 6.01 -7 5.02 -7 4 C-2.65714286 0 -2.65714286 0 0 0 Z " fill="#393D45" transform="translate(136,127)"/>
<path d="M0 0 C1.32 0 2.64 0 4 0 C3.67 1.32 3.34 2.64 3 4 C1.68 4.33 0.36 4.66 -1 5 C-1 2 -1 2 0 0 Z " fill="#A9BFE8" transform="translate(53,75)"/>
<path d="M0 0 C3.5625 0.25 3.5625 0.25 7 1 C7.33 1.66 7.66 2.32 8 3 C4.7 2.67 1.4 2.34 -2 2 C-1.34 1.34 -0.68 0.68 0 0 Z " fill="#99ADD4" transform="translate(36,44)"/>
<path d="M0 0 C0.66 0 1.32 0 2 0 C1.67 1.65 1.34 3.3 1 5 C0.34 5 -0.32 5 -1 5 C-1 5.66 -1 6.32 -1 7 C-1.66 7 -2.32 7 -3 7 C-1.125 1.125 -1.125 1.125 0 0 Z " fill="#3A3E45" transform="translate(13,14)"/>
<path d="M0 0 C0.66 0.33 1.32 0.66 2 1 C0.38405168 3.04119788 -1.2856382 5.04072937 -3 7 C-3.66 7 -4.32 7 -5 7 C-5 6.01 -5 5.02 -5 4 C-4.01 4 -3.02 4 -2 4 C-1.34 2.68 -0.68 1.36 0 0 Z " fill="#0B1525" transform="translate(90,104)"/>
<path d="M0 0 C1.32 0.66 2.64 1.32 4 2 C3.67 2.99 3.34 3.98 3 5 C1.02 4.01 -0.96 3.02 -3 2 C-2.01 1.34 -1.02 0.68 0 0 Z " fill="#A4BBE3" transform="translate(84,101)"/>
</svg>
